<svg xmlns="http://www.w3.org/2000/svg" version="1.1" viewBox="0.00 0.00 678.00 802.00" width="678.00" height="802.00">
      <g strokeWidth="2.00" fill="none" strokeLinecap="butt">
        <path stroke="#1476bb" d="&#10;  M 450.96 226.20&#10;  Q 432.03 218.88 412.56 213.07&#10;  Q 355.71 196.10 298.66 179.83&#10;  C 268.20 171.14 243.78 163.91 214.69 160.19" />
        <path stroke="#2084c6" d="&#10;  M 486.78 258.95&#10;  Q 470.21 255.29 460.41 252.46&#10;  Q 328.66 214.47 196.68 176.72" />
        <path stroke="#2891d0" d="&#10;  M 597.13 367.53&#10;  Q 582.78 359.79 569.28 355.75&#10;  C 525.21 342.59 480.88 330.34 436.65 317.74&#10;  Q 430.77 316.06 415.18 312.52" />
        <path stroke="#2891d0" d="&#10;  M 250.33 267.00&#10;  Q 236.94 260.39 221.17 255.80&#10;  Q 182.56 244.56 143.61 233.30" />
        <path stroke="#2a9eda" d="&#10;  M 221.25 311.83&#10;  Q 207.67 305.81 196.33 302.40&#10;  C 172.35 295.19 140.71 285.81 110.20 278.38" />
        <path stroke="#2a9eda" d="&#10;  M 407.07 363.73&#10;  C 446.14 373.12 484.71 384.46 523.14 396.07&#10;  Q 542.57 401.94 556.82 408.49" />
        <path stroke="#1476bb" d="&#10;  M 146.51 533.19&#10;  L 36.57 501.07" />
        <path stroke="#2084c6" d="&#10;  M 153.36 557.56&#10;  Q 114.65 547.79 81.96 538.00&#10;  Q 59.93 531.39 38.11 529.07" />
        <path stroke="#2891d0" d="&#10;  M 163.74 614.23&#10;  Q 148.66 608.22 142.93 606.45&#10;  Q 113.95 597.44 84.71 589.28&#10;  Q 75.54 586.72 66.15 585.12&#10;  Q 58.71 583.86 51.34 586.27" />
        <path stroke="#2a9eda" d="&#10;  M 166.31 633.97&#10;  Q 148.70 626.38 130.36 621.24&#10;  Q 107.51 614.84 84.63 608.54&#10;  Q 71.90 605.03 58.31 603.00" />
        <path stroke="#1476bb" d="&#10;  M 641.80 581.29&#10;  Q 618.45 573.09 589.31 564.80&#10;  Q 539.52 550.64 509.00 542.43&#10;  Q 493.05 538.13 476.62 534.22" />
        <path stroke="#2084c6" d="&#10;  M 622.64 623.02&#10;  Q 602.02 613.95 578.12 607.13&#10;  C 533.32 594.34 488.29 582.13 443.82 568.24" />
        <path stroke="#2891d0" d="&#10;  M 578.83 678.53&#10;  Q 562.20 674.78 548.43 670.80&#10;  Q 498.00 656.25 463.02 646.29&#10;  Q 430.31 636.98 397.38 627.49" />
        <path stroke="#2a9eda" d="&#10;  M 552.31 701.52&#10;  Q 541.78 696.09 525.67 691.33&#10;  Q 484.06 679.04 442.38 667.01&#10;  Q 407.06 656.81 381.98 651.78" />
      </g>
      <path fill="#0f70b7" d="&#10;  M 450.96 226.20&#10;  Q 432.03 218.88 412.56 213.07&#10;  Q 355.71 196.10 298.66 179.83&#10;  C 268.20 171.14 243.78 163.91 214.69 160.19&#10;  Q 308.07 78.53 420.31 24.50&#10;  A 0.49 0.49 0.0 0 1 421.00 25.05&#10;  Q 420.83 25.79 420.41 26.68&#10;  Q 420.09 27.36 405.73 55.97&#10;  Q 398.48 70.42 395.19 88.16&#10;  Q 388.57 123.96 402.66 157.66&#10;  C 413.56 183.73 431.23 206.27 450.96 226.20&#10;  Z" />
      <path fill="#197bbf" d="&#10;  M 450.96 226.20&#10;  Q 468.07 243.40 486.78 258.95&#10;  Q 470.21 255.29 460.41 252.46&#10;  Q 328.66 214.47 196.68 176.72&#10;  L 214.69 160.19&#10;  C 243.78 163.91 268.20 171.14 298.66 179.83&#10;  Q 355.71 196.10 412.56 213.07&#10;  Q 432.03 218.88 450.96 226.20&#10;  Z" />
      <path fill="#278ccc" d="&#10;  M 486.78 258.95&#10;  C 510.10 278.30 536.45 298.21 556.64 314.22&#10;  Q 572.95 327.15 586.40 339.44&#10;  Q 591.84 344.42 595.90 351.31&#10;  Q 600.44 359.02 597.13 367.53&#10;  Q 582.78 359.79 569.28 355.75&#10;  C 525.21 342.59 480.88 330.34 436.65 317.74&#10;  Q 430.77 316.06 415.18 312.52&#10;  Q 411.06 295.48 400.09 281.17&#10;  Q 375.17 248.67 334.31 245.18&#10;  Q 330.57 244.86 323.35 244.90&#10;  Q 320.24 244.92 312.34 244.56&#10;  C 289.97 243.54 267.53 252.95 250.33 267.00&#10;  Q 236.94 260.39 221.17 255.80&#10;  Q 182.56 244.56 143.61 233.30&#10;  Q 168.49 203.20 196.68 176.72&#10;  Q 328.66 214.47 460.41 252.46&#10;  Q 470.21 255.29 486.78 258.95&#10;  Z" />
      <path fill="#2996d4" d="&#10;  M 250.33 267.00&#10;  C 236.70 278.59 225.28 294.15 221.25 311.83&#10;  Q 207.67 305.81 196.33 302.40&#10;  C 172.35 295.19 140.71 285.81 110.20 278.38&#10;  Q 125.80 254.83 143.61 233.30&#10;  Q 182.56 244.56 221.17 255.80&#10;  Q 236.94 260.39 250.33 267.00&#10;  Z" />
      <path fill="#2ba6df" d="&#10;  M 221.25 311.83&#10;  Q 219.36 321.27 220.05 329.00&#10;  C 222.55 357.35 238.10 379.54 262.50 394.11&#10;  C 282.08 405.79 304.20 410.03 327.00 408.46&#10;  Q 351.45 406.77 373.88 394.36&#10;  Q 394.52 382.95 407.07 363.73&#10;  C 446.14 373.12 484.71 384.46 523.14 396.07&#10;  Q 542.57 401.94 556.82 408.49&#10;  C 519.19 436.91 475.99 453.76 429.65 462.77&#10;  C 391.46 470.19 352.42 472.85 314.50 470.42&#10;  Q 300.67 469.54 284.01 466.80&#10;  C 231.47 458.19 183.06 435.84 144.36 399.26&#10;  Q 124.05 380.07 106.28 355.02&#10;  Q 96.15 340.75 91.77 333.39&#10;  Q 86.70 324.87 89.15 315.89&#10;  Q 90.94 309.32 94.89 302.68&#10;  Q 102.22 290.33 110.20 278.38&#10;  C 140.71 285.81 172.35 295.19 196.33 302.40&#10;  Q 207.67 305.81 221.25 311.83&#10;  Z" />
      <path fill="#2996d4" d="&#10;  M 597.13 367.53&#10;  Q 594.26 373.59 589.62 378.62&#10;  Q 574.53 395.01 556.82 408.49&#10;  Q 542.57 401.94 523.14 396.07&#10;  C 484.71 384.46 446.14 373.12 407.07 363.73&#10;  Q 418.46 345.78 417.13 324.36&#10;  Q 416.88 320.44 415.18 312.52&#10;  Q 430.77 316.06 436.65 317.74&#10;  C 480.88 330.34 525.21 342.59 569.28 355.75&#10;  Q 582.78 359.79 597.13 367.53&#10;  Z" />
      <path fill="#0f70b7" d="&#10;  M 146.51 533.19&#10;  L 36.57 501.07&#10;  Q 37.21 463.38 44.77 426.50&#10;  Q 47.12 415.03 51.07 397.81&#10;  C 51.37 396.47 52.19 393.79 53.40 392.71&#10;  Q 58.46 388.16 64.07 391.07&#10;  C 66.94 392.55 69.29 397.18 71.31 399.44&#10;  Q 123.46 457.97 146.51 533.19&#10;  Z" />
      <path fill="#0f70b7" d="&#10;  M 641.80 581.29&#10;  Q 618.45 573.09 589.31 564.80&#10;  Q 539.52 550.64 509.00 542.43&#10;  Q 493.05 538.13 476.62 534.22&#10;  C 519.42 493.10 567.23 457.38 617.57 426.08&#10;  C 624.27 421.92 632.66 418.18 638.35 424.69&#10;  Q 640.70 427.38 643.50 436.75&#10;  Q 649.32 456.19 652.97 474.31&#10;  C 653.85 478.68 654.26 482.76 654.78 488.00&#10;  Q 655.66 496.87 654.41 517.39&#10;  Q 652.42 550.24 641.80 581.29&#10;  Z" />
      <path fill="#197bbf" d="&#10;  M 146.51 533.19&#10;  L 153.36 557.56&#10;  Q 114.65 547.79 81.96 538.00&#10;  Q 59.93 531.39 38.11 529.07&#10;  L 36.57 501.07&#10;  L 146.51 533.19&#10;  Z" />
      <path fill="#278ccc" d="&#10;  M 153.36 557.56&#10;  Q 160.19 585.44 163.74 614.23&#10;  Q 148.66 608.22 142.93 606.45&#10;  Q 113.95 597.44 84.71 589.28&#10;  Q 75.54 586.72 66.15 585.12&#10;  Q 58.71 583.86 51.34 586.27&#10;  Q 41.08 558.64 38.11 529.07&#10;  Q 59.93 531.39 81.96 538.00&#10;  Q 114.65 547.79 153.36 557.56&#10;  Z" />
      <path fill="#197bbf" d="&#10;  M 641.80 581.29&#10;  Q 634.21 603.10 622.64 623.02&#10;  Q 602.02 613.95 578.12 607.13&#10;  C 533.32 594.34 488.29 582.13 443.82 568.24&#10;  Q 459.69 550.54 476.62 534.22&#10;  Q 493.05 538.13 509.00 542.43&#10;  Q 539.52 550.64 589.31 564.80&#10;  Q 618.45 573.09 641.80 581.29&#10;  Z" />
      <path fill="#278ccc" d="&#10;  M 443.82 568.24&#10;  C 488.29 582.13 533.32 594.34 578.12 607.13&#10;  Q 602.02 613.95 622.64 623.02&#10;  Q 604.50 653.72 578.83 678.53&#10;  Q 562.20 674.78 548.43 670.80&#10;  Q 498.00 656.25 463.02 646.29&#10;  Q 430.31 636.98 397.38 627.49&#10;  Q 418.66 596.19 443.82 568.24&#10;  Z" />
      <path fill="#2996d4" d="&#10;  M 163.74 614.23&#10;  L 166.31 633.97&#10;  Q 148.70 626.38 130.36 621.24&#10;  Q 107.51 614.84 84.63 608.54&#10;  Q 71.90 605.03 58.31 603.00&#10;  L 51.34 586.27&#10;  Q 58.71 583.86 66.15 585.12&#10;  Q 75.54 586.72 84.71 589.28&#10;  Q 113.95 597.44 142.93 606.45&#10;  Q 148.66 608.22 163.74 614.23&#10;  Z" />
      <path fill="#2ba6df" d="&#10;  M 166.31 633.97&#10;  Q 169.16 655.58 171.83 677.30&#10;  Q 172.53 683.04 174.96 701.88&#10;  Q 176.16 711.20 171.63 719.19&#10;  A 1.78 1.77 -61.3 0 1 169.27 719.89&#10;  Q 130.98 699.86 101.95 667.81&#10;  Q 75.50 638.61 58.31 603.00&#10;  Q 71.90 605.03 84.63 608.54&#10;  Q 107.51 614.84 130.36 621.24&#10;  Q 148.70 626.38 166.31 633.97&#10;  Z" />
      <path fill="#2996d4" d="&#10;  M 397.38 627.49&#10;  Q 430.31 636.98 463.02 646.29&#10;  Q 498.00 656.25 548.43 670.80&#10;  Q 562.20 674.78 578.83 678.53&#10;  Q 566.30 690.97 552.31 701.52&#10;  Q 541.78 696.09 525.67 691.33&#10;  Q 484.06 679.04 442.38 667.01&#10;  Q 407.06 656.81 381.98 651.78&#10;  L 397.38 627.49&#10;  Z" />
      <path fill="#2ba6df" d="&#10;  M 552.31 701.52&#10;  C 508.78 734.68 455.76 755.52 402.00 764.21&#10;  Q 385.09 766.95 368.00 768.36&#10;  C 364.06 768.69 357.48 767.84 354.39 765.31&#10;  C 349.48 761.30 350.04 755.14 350.12 749.17&#10;  Q 350.17 745.43 350.51 741.86&#10;  C 353.60 709.88 365.42 679.30 381.98 651.78&#10;  Q 407.06 656.81 442.38 667.01&#10;  Q 484.06 679.04 525.67 691.33&#10;  Q 541.78 696.09 552.31 701.52&#10;  Z" />
    </svg>